HIERARCHY
ROOT Hips
{
	OFFSET 0.000000 0.000000 0.000000
	CHANNELS 6 Xposition Yposition Zposition Zrotation Yrotation Xrotation 
	JOINT LeftUpLeg_virtual
	{
		OFFSET 0.000000 0.000000 0.000000
		CHANNELS 3 Zrotation Yrotation Xrotation
		JOINT LeftUpLeg
		{
			OFFSET 10.205400 -3.823500 0.155100
			CHANNELS 3 Zrotation Yrotation Xrotation
			JOINT LeftLeg
			{
				OFFSET 0.708757 -12.982077 0.567790
				CHANNELS 3 Zrotation Yrotation Xrotation
				JOINT LeftFoot
				{
					OFFSET -0.708756 -10.717838 -2.184338
					CHANNELS 3 Zrotation Yrotation Xrotation
					JOINT LeftToeBase
					{
						OFFSET 0.108149 -7.191104 7.560241
						CHANNELS 3 Zrotation Yrotation Xrotation
						End Site
						{
							OFFSET 0.000000 0.000000 0.000000
						}
					}
				}
			}
		}
	}
	JOINT RightUpLeg_virtual
	{
		OFFSET 0.000000 0.000000 0.000000
		CHANNELS 3 Zrotation Yrotation Xrotation
		JOINT RightUpLeg
		{
			OFFSET -10.205400 -3.823500 0.005500
			CHANNELS 3 Zrotation Yrotation Xrotation
			JOINT RightLeg
			{
				OFFSET -0.708756 -12.982134 0.610632
				CHANNELS 3 Zrotation Yrotation Xrotation
				JOINT RightFoot
				{
					OFFSET 0.708754 -10.717769 -1.945823
					CHANNELS 3 Zrotation Yrotation Xrotation
					JOINT RightToeBase
					{
						OFFSET -0.108140 -7.191069 7.372968
						CHANNELS 3 Zrotation Yrotation Xrotation
						End Site
						{
							OFFSET 0.000000 0.000000 0.000000
						}
					}
				}
			}
		}
	}
	JOINT Spine_virtual
	{
		OFFSET 0.000000 0.000000 0.000000
		CHANNELS 3 Zrotation Yrotation Xrotation
		JOINT Spine
		{
			OFFSET 0.000000 6.876099 0.125700
			CHANNELS 3 Zrotation Yrotation Xrotation
			JOINT Spine1
			{
				OFFSET 0.000000 8.022060 0.146608
				CHANNELS 3 Zrotation Yrotation Xrotation
				JOINT Spine2
				{
					OFFSET 0.000000 9.168068 0.167552
					CHANNELS 3 Zrotation Yrotation Xrotation
					JOINT Neck_virtual
					{
						OFFSET 0.000000 0.000000 0.000000
						CHANNELS 3 Zrotation Yrotation Xrotation
						JOINT Neck
						{
							OFFSET 0.000000 10.314075 0.188496
							CHANNELS 3 Zrotation Yrotation Xrotation
							JOINT Head
							{
								OFFSET 0.000000 7.643700 -2.377400
								CHANNELS 3 Zrotation Yrotation Xrotation
								End Site
								{
									OFFSET 0.000000 0.000000 0.000000
								}
							}
						}
					}
					JOINT LeftShoulder_virtual
					{
						OFFSET 0.000000 0.000000 0.000000
						CHANNELS 3 Zrotation Yrotation Xrotation
						JOINT LeftShoulder
						{
							OFFSET 4.392200 8.824978 0.174984
							CHANNELS 3 Zrotation Yrotation Xrotation
							JOINT LeftArm
							{
								OFFSET 8.771219 -2.981674 -0.026999
								CHANNELS 3 Zrotation Yrotation Xrotation
								JOINT LeftForeArm
								{
									OFFSET 8.512804 0.000000 -0.000000
									CHANNELS 3 Zrotation Yrotation Xrotation
									JOINT LeftHand
									{
										OFFSET 18.484802 0.000000 -0.000000
										CHANNELS 3 Zrotation Yrotation Xrotation
										End Site
										{
											OFFSET 0.000000 0.000000 0.000000
										}
									}
								}
							}
						}
					}
					JOINT RightShoulder_virtual
					{
						OFFSET 0.000000 0.000000 0.000000
						CHANNELS 3 Zrotation Yrotation Xrotation
						JOINT RightShoulder
						{
							OFFSET -4.392200 8.824993 0.141379
							CHANNELS 3 Zrotation Yrotation Xrotation
							JOINT RightArm
							{
								OFFSET -8.771282 -2.981682 -0.094208
								CHANNELS 3 Zrotation Yrotation Xrotation
								JOINT RightForeArm
								{
									OFFSET -8.494598 0.000000 0.000000
									CHANNELS 3 Zrotation Yrotation Xrotation
									JOINT RightHand
									{
										OFFSET -18.483803 0.000000 0.000001
										CHANNELS 3 Zrotation Yrotation Xrotation
										End Site
										{
											OFFSET 0.000000 0.000000 0.000000
										}
									}
								}
							}
						}
					}
				}
			}
		}
	}
}
MOTION
Frames: 7
Frame Time: 0.033333
20.834555 35.423370 32.396515 0.049736 -57.136978 -0.165384 -4.981324 -2.402075 11.044527 -10.725780 -1.530875 -19.324140 15.039592 10.042822 21.627084 -2.641992 2.463704 6.308633 0.000000 0.000000 0.000000 -1.706242 -0.787731 9.475823 7.166760 -3.022721 -35.105987 -5.750504 0.565955 35.777576 3.193628 11.399119 11.225387 0.000000 0.000000 0.000000 -3.309726 0.103591 -2.459993 3.150760 3.483335 -5.962956 -1.040168 -3.102029 10.473042 -0.016199 -0.026497 -0.018652 -1.100795 -1.583926 11.916364 4.146600 -6.356172 22.107219 0.000000 0.000000 0.000000 0.201177 -1.337887 8.416507 -10.116099 -8.775902 1.704374 -42.360099 20.238375 6.894082 -120.945110 -84.157390 137.137481 0.000000 0.000000 0.000000 -3.222527 0.166989 7.825232 20.995908 5.713941 -0.870828 46.025718 -4.951002 -6.196780 -171.468921 74.847522 -175.589916 0.000000 0.000000 0.000000 
20.320024 35.349396 32.965439 -0.106557 -57.751107 0.065422 -5.033392 -2.567304 11.094562 -11.157567 -0.446830 -17.784196 15.075334 10.480549 22.014644 -2.799365 2.127435 4.407238 0.000000 0.000000 0.000000 -1.610704 -0.840884 9.263985 8.560260 -2.566959 -36.899329 -6.307876 0.203985 28.408118 3.695409 11.060261 13.192092 0.000000 0.000000 0.000000 -3.385280 0.064106 -2.350548 3.283203 3.631691 -5.933185 -1.014953 -3.210097 10.396673 -0.048546 -0.002254 -0.024234 -1.049481 -1.724336 11.953759 4.416294 -6.517685 21.960440 0.000000 0.000000 0.000000 0.224111 -1.589766 8.468412 -10.083505 -8.681229 1.884388 -42.360864 19.842613 7.164785 -120.512268 -84.138730 136.660597 0.000000 0.000000 0.000000 -3.195900 -0.016238 7.901585 21.171624 5.547815 -0.981322 46.041701 -4.780448 -6.163743 -172.274173 74.386497 -176.651150 0.000000 0.000000 0.000000 
19.739489 35.207016 33.505074 -0.053922 -58.435315 0.021805 -5.081300 -2.764512 11.342101 -11.608344 0.539170 -16.302509 14.970684 10.720397 22.560706 -2.705125 1.941547 2.475425 0.000000 0.000000 0.000000 -1.597863 -0.863796 9.163315 9.570867 -2.024963 -38.414138 -6.768244 -0.089740 22.091774 4.044622 10.568313 14.607529 0.000000 0.000000 0.000000 -3.487415 0.024925 -2.165345 3.402032 3.829115 -5.928004 -0.978616 -3.307105 10.309633 0.014432 0.028326 -0.017157 -1.084311 -1.832111 11.889847 4.743814 -6.510617 21.887686 0.000000 0.000000 0.000000 0.186990 -1.668348 8.456787 -10.055927 -8.580773 1.997510 -42.233635 19.615144 7.628753 -120.786868 -83.981383 136.931154 0.000000 0.000000 0.000000 -3.235948 -0.129099 7.862606 21.499849 5.323468 -0.926694 46.046113 -4.470652 -6.725669 -172.496783 73.588035 -177.131749 0.000000 0.000000 0.000000 
19.103046 35.010872 34.041100 -0.089059 -58.984257 0.171600 -5.007753 -3.097004 11.575182 -12.103582 1.579892 -15.019019 14.673080 10.685552 23.143599 -2.490415 1.756092 0.772966 0.000000 0.000000 0.000000 -1.521033 -1.048261 9.096268 10.395689 -1.415212 -39.984115 -7.053797 -0.217955 17.552099 4.087354 10.015055 15.396645 0.000000 0.000000 0.000000 -3.497809 -0.040721 -2.054632 3.572027 3.968798 -6.024319 -0.980686 -3.473060 10.194234 0.000859 -0.001257 -0.005880 -1.068633 -1.994378 11.844123 5.099611 -6.758202 21.921596 0.000000 0.000000 0.000000 0.190711 -1.823571 8.421120 -10.028062 -8.299470 2.078528 -42.046081 19.402940 8.157088 -120.582373 -83.685431 136.749594 0.000000 0.000000 0.000000 -3.244739 -0.256195 7.784404 21.884029 5.019211 -0.987440 45.897457 -3.899962 -8.095168 -172.653030 72.542988 -177.525906 0.000000 0.000000 0.000000 
18.366112 34.781620 34.577354 -0.037214 -59.625639 0.096905 -4.950242 -3.148359 11.875872 -12.413322 2.480608 -13.565592 14.362510 10.517685 23.866856 -2.277978 1.467467 -0.709618 0.000000 0.000000 0.000000 -1.480512 -1.078814 9.153683 10.946449 -0.872238 -41.343637 -7.190010 -0.356555 14.867601 3.891116 9.525048 15.440891 0.000000 0.000000 0.000000 -3.486669 -0.050034 -1.921718 3.749984 4.065478 -6.097903 -1.023628 -3.627867 10.105066 -0.004582 0.001990 0.023220 -1.104701 -2.192969 11.676340 5.455579 -6.926560 22.085253 0.000000 0.000000 0.000000 0.165663 -1.948047 8.254837 -9.952993 -7.929787 2.233168 -41.911239 19.350576 8.808975 -120.575215 -83.537346 136.611925 0.000000 0.000000 0.000000 -3.283938 -0.415422 7.623450 22.371996 4.648485 -1.110995 45.678400 -3.161429 -10.189319 -172.944256 71.401773 -178.028935 0.000000 0.000000 0.000000 
17.521671 34.540722 35.075577 0.013908 -60.308979 0.114483 -4.936995 -2.930197 12.000543 -12.302242 2.628708 -12.202496 14.163956 10.338360 25.203502 -1.922865 1.212442 -1.972217 0.000000 0.000000 0.000000 -1.488707 -0.999290 9.165829 11.293056 -0.555544 -42.327311 -7.175493 -0.337294 13.688048 3.432215 9.014520 15.142610 0.000000 0.000000 0.000000 -3.402978 0.008677 -1.933724 3.955831 4.085986 -6.224700 -1.072092 -3.788729 9.912089 -0.007345 0.017976 0.042320 -1.145025 -2.363922 11.554443 5.800720 -7.090436 22.349453 0.000000 0.000000 0.000000 0.102826 -2.131622 8.117594 -9.907732 -7.560283 2.397468 -41.776907 19.356990 9.471457 -120.282828 -83.498987 136.530181 0.000000 0.000000 0.000000 -3.328030 -0.581044 7.493165 22.846383 4.186464 -1.194303 45.276371 -2.465181 -12.474873 -173.122742 70.203239 -178.360473 0.000000 0.000000 0.000000 
16.555222 34.323189 35.556053 -0.180923 -60.946222 0.461945 -4.881850 -2.594351 11.892385 -11.939084 2.635520 -10.408773 13.829772 10.076663 26.099847 -1.625052 0.823282 -2.877625 0.000000 0.000000 0.000000 -1.336795 -0.889696 9.057443 11.299122 -0.413505 -42.668598 -7.095682 -0.299541 13.838943 2.864469 8.528581 14.449422 0.000000 0.000000 0.000000 -3.203344 0.101614 -2.119763 4.239508 3.978333 -6.476853 -1.102481 -3.996949 9.747665 -0.000112 0.004370 0.033115 -1.178749 -2.578344 11.487648 6.163892 -7.240497 22.691890 0.000000 0.000000 0.000000 0.031489 -2.306315 8.053211 -9.930451 -7.237860 2.436044 -41.672084 19.425796 10.187285 -118.716037 -83.516172 135.013797 0.000000 0.000000 0.000000 -3.439984 -0.773784 7.359766 23.191849 3.719166 -1.373007 44.752274 -1.998607 -14.436272 -173.531379 69.040754 -178.840007 0.000000 0.000000 0.000000 
